<svg width="82" height="82" viewBox="0 0 82 82" fill="none" xmlns="http://www.w3.org/2000/svg">
<mask id="mask0_641_8749" style="mask-type:luminance" maskUnits="userSpaceOnUse" x="11" y="30" width="1" height="1">
<path d="M11.8053 30.2207C11.8053 30.2207 11.8117 30.2529 11.8246 30.2722H11.8311C11.8311 30.2722 11.8117 30.2336 11.8053 30.2207Z" fill="white"/>
</mask>
<g mask="url(#mask0_641_8749)">
<path d="M11.8311 30.2207H11.8053V30.2658H11.8311V30.2207Z" fill="url(#paint0_radial_641_8749)"/>
</g>
<mask id="mask1_641_8749" style="mask-type:luminance" maskUnits="userSpaceOnUse" x="29" y="50" width="1" height="1">
<path d="M29.829 50.0771V50.09C29.829 50.09 29.829 50.0836 29.8419 50.0771H29.8354H29.829Z" fill="white"/>
</mask>
<g mask="url(#mask1_641_8749)">
<path d="M29.8354 50.0771H29.8225V50.09H29.8354V50.0771Z" fill="url(#paint1_radial_641_8749)"/>
</g>
<mask id="mask2_641_8749" style="mask-type:luminance" maskUnits="userSpaceOnUse" x="13" y="43" width="14" height="18">
<path d="M13.1511 48.114C13.1768 51.2356 13.209 54.3637 13.2348 57.4853C13.428 58.174 13.8143 59.1266 14.6643 59.841C16.139 61.0832 18.1158 60.8772 20.9492 60.5426C22.456 60.3623 24.5166 59.9955 26.9056 59.1652L18.206 43.4219L13.1511 48.1204V48.114Z" fill="white"/>
</mask>
<g mask="url(#mask2_641_8749)">
<path d="M26.5675 41.3L10.4193 43.8564L13.4866 63.2138L29.6349 60.6574L26.5675 41.3Z" fill="url(#paint2_linear_641_8749)"/>
</g>
<mask id="mask3_641_8749" style="mask-type:luminance" maskUnits="userSpaceOnUse" x="5" y="7" width="72" height="68">
<path d="M40.7372 7.6875C28.6377 7.72612 18.2252 9.44462 10.0408 11.4592C6.78893 12.2573 4.89575 15.6299 5.91317 18.8159C8.45028 26.7777 12.1915 36.1361 17.7874 46.0674C23.9047 56.9191 30.6274 65.576 36.616 72.2054C38.9857 74.825 43.1198 74.7285 45.3607 71.9994C51.1754 64.9066 57.4409 56.2175 63.3458 45.8421C68.8257 36.2198 72.889 27.0995 75.9348 19.0026C77.1518 15.7651 75.2587 12.1929 71.8973 11.3755C63.6936 9.38026 53.2489 7.6875 41.13 7.6875C41.0013 7.6875 40.866 7.6875 40.7372 7.6875Z" fill="white"/>
</mask>
<g mask="url(#mask3_641_8749)">
<path d="M77.1582 7.6875H4.89575V74.825H77.1582V7.6875Z" fill="url(#paint3_linear_641_8749)"/>
</g>
<mask id="mask4_641_8749" style="mask-type:luminance" maskUnits="userSpaceOnUse" x="8" y="9" width="66" height="64">
<path d="M40.6858 9.74023C28.29 9.77885 17.8453 11.7934 10.073 13.9367C8.69501 14.3165 7.89653 15.7711 8.30221 17.1549C10.5946 25.0137 14.1749 34.6489 19.9059 44.9406C26.1843 56.2235 33.1646 64.919 39.0952 71.2524C40.1384 72.3659 41.9028 72.3144 42.888 71.143C48.6963 64.2303 55.1357 55.464 61.1694 44.7346C66.778 34.7583 70.7576 25.3612 73.6038 17.2514C74.0996 15.829 73.3011 14.2843 71.8651 13.8917C64.0542 11.7484 53.5323 9.74023 41.0528 9.74023C40.9304 9.74023 40.8081 9.74023 40.6922 9.74023" fill="white"/>
</mask>
<g mask="url(#mask4_641_8749)">
<path d="M74.0996 9.74023H7.89651V72.3659H74.0996V9.74023Z" fill="url(#paint4_linear_641_8749)"/>
</g>
<path d="M71.7042 40.3133C70.6095 40.2425 69.386 40.1846 68.0531 40.1717C60.0425 40.0816 54.0217 41.562 50.2096 42.5145C45.2706 43.7503 38.5157 45.9194 30.9301 49.8841C30.8786 48.4424 30.8722 46.9234 30.9108 45.3336C30.9688 43.0745 31.1298 40.9569 31.3487 38.9874C28.9082 40.0044 25.7465 41.6199 22.4559 44.1687C19.526 46.4407 17.356 48.79 15.8234 50.7209C15.9522 48.1914 15.8427 44.5999 14.748 40.4806C13.8852 37.2303 12.6552 34.6171 11.5734 32.6927C15.4177 30.2275 20.6207 27.4277 27.1245 25.2587C35.6888 22.4074 43.2744 21.7316 48.6319 21.6865C47.8141 23.3214 46.9706 25.2844 46.2429 27.55C45.496 29.8929 45.0323 32.0426 44.749 33.8898C48.2907 33.5809 53.674 33.5423 59.9008 35.2093C63.4167 36.149 66.3917 37.4105 68.7936 38.6592C69.8818 39.2256 70.8542 39.792 71.7042 40.3133Z" fill="#EE4833"/>
<path d="M71.2276 38.8141C68.4973 37.1213 64.5242 35.0681 59.4178 33.7036C53.1845 32.0366 47.8076 32.0752 44.266 32.3842C44.6652 30.3825 45.1611 28.2585 45.7664 26.0444C46.3459 23.914 46.9705 21.9187 47.6144 20.0586C42.3277 20.1938 34.9547 20.9597 26.6479 23.7595C19.9059 26.0315 14.5355 28.9665 10.6139 31.5088C10.1567 35.1389 9.912 39.8697 10.5237 45.3341C11.0904 50.3416 12.2173 54.5703 13.3442 57.8399C13.4665 56.9324 13.7112 55.6323 14.2264 54.139C15.9328 49.1895 19.2362 46.203 22.4172 43.3968C24.3362 41.704 27.1308 39.5285 30.8786 37.4946C30.6274 39.3548 30.4471 41.4852 30.4407 43.8344C30.4342 46.0421 30.5759 48.0503 30.7948 49.8202C34.8645 47.0462 41.2395 43.3775 49.7394 41.0153C58.5871 38.5502 66.2306 38.4794 71.2405 38.8141" fill="white"/>
<defs>
<radialGradient id="paint0_radial_641_8749" cx="0" cy="0" r="1" gradientUnits="userSpaceOnUse" gradientTransform="translate(11.2919 30.1111) scale(0.0193183 0.0193103)">
<stop stop-color="#ED1C24"/>
<stop offset="1" stop-color="#A20E1A"/>
</radialGradient>
<radialGradient id="paint1_radial_641_8749" cx="0" cy="0" r="1" gradientUnits="userSpaceOnUse" gradientTransform="translate(29.788 50.0778) scale(0.00643921 0.00643539)">
<stop stop-color="#ED1C24"/>
<stop offset="1" stop-color="#A20E1A"/>
</radialGradient>
<linearGradient id="paint2_linear_641_8749" x1="12.7948" y1="53.7541" x2="25.8708" y2="51.6821" gradientUnits="userSpaceOnUse">
<stop stop-color="#310007"/>
<stop offset="0.05" stop-color="#4F0B0E"/>
<stop offset="0.13" stop-color="#791B17"/>
<stop offset="0.21" stop-color="#9D2920"/>
<stop offset="0.29" stop-color="#BA3427"/>
<stop offset="0.38" stop-color="#D13D2C"/>
<stop offset="0.48" stop-color="#E14330"/>
<stop offset="0.58" stop-color="#EB4632"/>
<stop offset="0.73" stop-color="#EE4833"/>
<stop offset="1" stop-color="#EE4833"/>
</linearGradient>
<linearGradient id="paint3_linear_641_8749" x1="40.4037" y1="7.89218" x2="40.4037" y2="74.3152" gradientUnits="userSpaceOnUse">
<stop stop-color="#039EDA"/>
<stop offset="1" stop-color="#0B4E8E"/>
</linearGradient>
<linearGradient id="paint4_linear_641_8749" x1="41.5338" y1="9.36422" x2="41.5338" y2="71.6809" gradientUnits="userSpaceOnUse">
<stop stop-color="#0B4E8E"/>
<stop offset="1" stop-color="#039EDA"/>
</linearGradient>
</defs>
</svg>
